<svg width="24" height="24" viewBox="0 0 24 24" fill="none" xmlns="http://www.w3.org/2000/svg">
<g clip-path="url(#clip0_14_78)">
<path d="M20.8589 15.331L17.0869 21.486C16.6727 22.166 16.1088 22.7426 15.4382 23.1718C14.7675 23.601 14.0078 23.8716 13.2169 23.963C13.0085 23.9877 12.7988 24.0001 12.5889 24C11.5143 23.9985 10.4665 23.665 9.58888 23.045C8.68193 23.7245 7.56161 24.0566 6.43088 23.9812C5.30016 23.9058 4.23384 23.4279 3.42512 22.6341C2.61641 21.8402 2.11879 20.783 2.02243 19.6538C1.92608 18.5247 2.23736 17.3984 2.89988 16.479L1.58488 15.166C1.02337 14.6045 0.596192 13.9232 0.335328 13.1731C0.0744636 12.4231 -0.0133237 11.6238 0.0785403 10.835C0.170404 10.0462 0.439539 9.28842 0.865788 8.61841C1.29204 7.94839 1.86435 7.38349 2.53988 6.96602L8.30688 3.40002C9.86909 2.3988 11.7062 1.91337 13.5591 2.01223C15.412 2.11109 17.1871 2.78925 18.6339 3.95102L20.2929 2.29202C20.3851 2.19651 20.4955 2.12033 20.6175 2.06792C20.7395 2.01551 20.8707 1.98792 21.0035 1.98677C21.1363 1.98562 21.2679 2.01092 21.3908 2.0612C21.5137 2.11148 21.6254 2.18573 21.7193 2.27963C21.8132 2.37352 21.8874 2.48517 21.9377 2.60807C21.988 2.73096 22.0133 2.86264 22.0121 2.99542C22.011 3.1282 21.9834 3.25942 21.931 3.38143C21.8786 3.50343 21.8024 3.61377 21.7069 3.70602L20.0499 5.36402C21.1612 6.75626 21.8319 8.44844 21.976 10.224C22.1201 11.9996 21.7311 13.7778 20.8589 15.331ZM8.06488 21.647L4.34588 17.927C4.05525 18.4468 3.94316 19.0475 4.0268 19.6371C4.11043 20.2267 4.38517 20.7726 4.80888 21.191C5.2363 21.597 5.77995 21.8593 6.36377 21.941C6.94759 22.0228 7.54236 21.92 8.06488 21.647ZM17.9859 6.04702C16.8754 4.92586 15.4136 4.22004 13.8451 4.04766C12.2765 3.87528 10.6963 4.24678 9.36888 5.10002L3.59188 8.66602C3.17292 8.92499 2.81798 9.27538 2.55363 9.69097C2.28929 10.1066 2.1224 10.5766 2.06545 11.0658C2.00851 11.555 2.06298 12.0508 2.2248 12.516C2.38663 12.9812 2.6516 13.4037 2.99988 13.752L10.2899 21.043C10.6387 21.3923 11.0622 21.6578 11.5285 21.8198C11.9947 21.9818 12.4917 22.036 12.9819 21.9782C13.4721 21.9204 13.9429 21.7523 14.3587 21.4864C14.7746 21.2205 15.1247 20.8638 15.3829 20.443L19.1379 14.318C19.8713 13.0007 20.1556 11.4804 19.9477 9.98711C19.7399 8.49383 19.0512 7.10892 17.9859 6.04202V6.04702ZM19.2649 24C19.0537 24.0004 18.8478 23.9339 18.6767 23.8101C18.5056 23.6863 18.3782 23.5115 18.3125 23.3107C18.2469 23.11 18.2466 22.8936 18.3115 22.6927C18.3764 22.4917 18.5032 22.3164 18.6739 22.192C20.4249 20.8756 21.6099 18.9427 21.9889 16.785C22.0154 16.6551 22.0676 16.5318 22.1422 16.4223C22.2169 16.3127 22.3126 16.2191 22.4238 16.1469C22.535 16.0746 22.6594 16.0252 22.7898 16.0016C22.9203 15.9779 23.0541 15.9803 23.1836 16.0088C23.3131 16.0373 23.4356 16.0913 23.544 16.1676C23.6525 16.2439 23.7446 16.341 23.8152 16.4532C23.8858 16.5655 23.9333 16.6906 23.955 16.8214C23.9768 16.9522 23.9723 17.086 23.9419 17.215C23.4519 19.8467 21.9933 22.1991 19.8539 23.808C19.6828 23.9328 19.4766 24 19.2649 24ZM0.999876 5.73902C0.815179 5.7382 0.634318 5.68624 0.477347 5.5889C0.320376 5.49157 0.193429 5.35266 0.110581 5.18759C0.0277322 5.02251 -0.00777989 4.83772 0.00798181 4.65369C0.0237435 4.46967 0.0901632 4.2936 0.199876 4.14502C1.83086 1.96561 4.2317 0.490343 6.91288 0.0200208C7.17279 -0.0330224 7.44313 0.0193565 7.66442 0.165635C7.88571 0.311913 8.03983 0.540109 8.09288 0.800021C8.14592 1.05993 8.09354 1.33027 7.94726 1.55156C7.80098 1.77286 7.57279 1.92698 7.31288 1.98002C5.11085 2.34364 3.13511 3.54565 1.79988 5.33402C1.70725 5.45914 1.5867 5.5609 1.44781 5.63121C1.30893 5.70152 1.15554 5.73844 0.999876 5.73902Z" fill="#374957"/>
</g>
<defs>
<clipPath id="clip0_14_78">
<rect width="24" height="24" fill="white"/>
</clipPath>
</defs>
</svg>
